# xmcd
#
# Track frame offsets: 
#        150
#        14950
#        31281
#        47317
#        71825
#        97351
#        110570
#        131510
#        152054
#        170201
#        187389
#        205630
#        224454
#
# Disc length: 3264 seconds
#
# Revision: 2
# Processed by: cddbd v1.5.2PL0 Copyright (c) Steve Scherf et al.
# Submitted via: ExactAudioCopy v1.0b1
#
DISCID=cc0cbe0d
DTITLE=Kristin Berglund - Rib Bone Of My Own
DYEAR=2003
DGENRE=Blues
TTITLE0=All Of The Time
TTITLE1=Tell Somebody
TTITLE2=Rib Bone Of My Own
TTITLE3=The Man And The Woman
TTITLE4=Forgiveness
TTITLE5=Kissing In The Dark
TTITLE6=Minnie's Song
TTITLE7=Give And Let Live
TTITLE8=Your Secret Box Of Mysteries
TTITLE9=Nothing But Water
TTITLE10=Slavery
TTITLE11=Love Is Still The Greatest
TTITLE12=When I Cross
EXTD=
EXTT0=
EXTT1=
EXTT2=
EXTT3=
EXTT4=
EXTT5=
EXTT6=
EXTT7=
EXTT8=
EXTT9=
EXTT10=
EXTT11=
EXTT12=
PLAYORDER=
